# xmcd
#
# Track frame offsets: 
#        150
#        19875
#        37795
#        50670
#        65412
#        78517
#        96080
#        115550
#        126837
#        139777
#        150200
#        163107
#        179380
#        190945
#        209875
#        231012
#        249080
#        267340
#
# Disc length: 4174 seconds
#
# Revision: 2
# Processed by: cddbd v1.5.2PL0 Copyright (c) Steve Scherf et al.
# Submitted via: ExactAudioCopy v0.99pb4
#
DISCID=ef104c12
DTITLE=Various Artist - We'll Play The Blues For You
DYEAR=2004
DGENRE=Blues
TTITLE0=Albert King - Angel Of Mercy
TTITLE1=Little Sonny - Baby,What You Want Me To Do
TTITLE2=John Lee Hooker - Please Don't Go
TTITLE3=Jimmy McCracklin - Just Got To Know
TTITLE4=Rufus Thomas - Bear Cat (aka Hound Dog)
TTITLE5=Little Milton - Tin Pan Alley (Long Version)
TTITLE6=Joe Hicks - Nobody Knows You When You're Down And Out
TTITLE7=Gus Cannon - Walk Right In
TTITLE8=Johnnie Taylor - Hello Sundown
TTITLE9=Otis Redding - Send Me Some Lovin'
TTITLE10=Mable John - Ain't Giving It Up
TTITLE11=Steve Cropper - Oh, Pretty Woman
TTITLE12=Ruby Johnson - Weak Spot
TTITLE13=Albert King - The Sky Is Crying
TTITLE14=John Lee Hooker - Goin' To Louisiana
TTITLE15=Little Milton - That's What Love Will Make You Do
TTITLE16=Little Sonny - Don't Ask Me No Questions
TTITLE17=Albert King - Blues Power
EXTD=Label: Fantasy Inc. (Stax Records]\nSCD 8613-2\nDigitally Remaste
EXTD=red by Joe Tarantino (Fantasy Studios, Berkeley 2004)
EXTT0=
EXTT1=
EXTT2=
EXTT3=
EXTT4=
EXTT5=
EXTT6=
EXTT7=
EXTT8=
EXTT9=
EXTT10=
EXTT11=
EXTT12=
EXTT13=
EXTT14=
EXTT15=
EXTT16=
EXTT17=
PLAYORDER=
